<svg width="26" height="26" viewBox="0 0 26 26" fill="none" xmlns="http://www.w3.org/2000/svg">
<path d="M20.4475 15.105L16.4475 13.105C16.2901 13.0265 16.1147 12.991 15.9391 13.002C15.7636 13.0129 15.594 13.07 15.4475 13.1675L13.6113 14.3925C12.7683 13.9291 12.0747 13.2354 11.6113 12.3925L12.8363 10.5562C12.9337 10.4098 12.9908 10.2402 13.0018 10.0646C13.0128 9.88907 12.9772 9.7137 12.8988 9.55625L10.8988 5.55625C10.8159 5.38884 10.6877 5.248 10.5289 5.14968C10.3701 5.05137 10.1868 4.99952 10 5C8.67395 5 7.40218 5.52678 6.4645 6.46447C5.52681 7.40215 5.00003 8.67392 5.00003 10C5.00334 12.9164 6.16333 15.7123 8.22551 17.7745C10.2877 19.8367 13.0837 20.9967 16 21C16.6566 21 17.3068 20.8707 17.9134 20.6194C18.5201 20.3681 19.0713 19.9998 19.5356 19.5355C19.9999 19.0712 20.3682 18.52 20.6194 17.9134C20.8707 17.3068 21 16.6566 21 16C21.0002 15.8142 20.9485 15.6321 20.851 15.474C20.7534 15.3159 20.6137 15.1881 20.4475 15.105ZM16 19C13.6139 18.9974 11.3262 18.0483 9.63899 16.361C7.95174 14.6738 7.00268 12.3861 7.00003 10C6.99984 9.3064 7.23998 8.63416 7.67961 8.09768C8.11923 7.5612 8.73117 7.19362 9.41128 7.0575L10.8463 9.9325L9.62503 11.75C9.53377 11.8869 9.4777 12.0442 9.46178 12.2079C9.44586 12.3717 9.47059 12.5368 9.53378 12.6888C10.2493 14.3892 11.602 15.742 13.3025 16.4575C13.4549 16.5235 13.6213 16.5505 13.7867 16.5361C13.9521 16.5217 14.1114 16.4663 14.25 16.375L16.0763 15.1575L18.9513 16.5925C18.8141 17.2734 18.4449 17.8856 17.9067 18.3247C17.3685 18.7637 16.6946 19.0024 16 19ZM13 3.09594e-07C10.7556 -0.000489452 8.5493 0.58011 6.59585 1.68529C4.64239 2.79046 3.00834 4.38256 1.85274 6.30662C0.697151 8.23069 0.0593819 10.4212 0.00151481 12.6648C-0.0563522 14.9085 0.467654 17.1289 1.52253 19.11L0.10378 23.3662C-0.0137393 23.7186 -0.0307941 24.0968 0.0545272 24.4583C0.139848 24.8199 0.324174 25.1505 0.586844 25.4132C0.849514 25.6759 1.18015 25.8602 1.54169 25.9455C1.90323 26.0308 2.28139 26.0138 2.63378 25.8962L6.89003 24.4775C8.63349 25.4048 10.5653 25.9228 12.5388 25.992C14.5123 26.0613 16.4757 25.68 18.2799 24.8772C20.084 24.0743 21.6816 22.871 22.9513 21.3586C24.221 19.8462 25.1294 18.0644 25.6077 16.1484C26.0859 14.2325 26.1214 12.2328 25.7114 10.301C25.3015 8.36934 24.4568 6.55642 23.2416 4.9999C22.0263 3.44337 20.4725 2.18415 18.6979 1.31782C16.9234 0.451486 14.9748 0.000810288 13 3.09594e-07ZM13 24C11.0663 24.0013 9.1664 23.4921 7.49253 22.5238C7.36997 22.4527 7.23372 22.4085 7.09278 22.394C6.95185 22.3796 6.80945 22.3953 6.67503 22.44L2.00003 24L3.55878 19.325C3.60371 19.1907 3.61959 19.0483 3.60537 18.9074C3.59115 18.7665 3.54715 18.6301 3.47628 18.5075C2.26374 16.4111 1.77692 13.9732 2.09132 11.572C2.40572 9.17068 3.50377 6.94027 5.21514 5.22674C6.92651 3.51321 9.15552 2.41234 11.5564 2.0949C13.9573 1.77747 16.3958 2.26122 18.4937 3.47111C20.5916 4.68099 22.2316 6.54939 23.1592 8.78644C24.0869 11.0235 24.2504 13.5042 23.6243 15.8436C22.9983 18.1831 21.6177 20.2505 19.6967 21.7253C17.7757 23.2 15.4218 23.9996 13 24Z" fill="url(#paint0_linear_2_776)"/>
<defs>
<linearGradient id="paint0_linear_2_776" x1="-0.00280762" y1="0" x2="28.748" y2="3.52164" gradientUnits="userSpaceOnUse">
<stop stop-color="#99CA3A"/>
<stop offset="1" stop-color="#CBFE69"/>
</linearGradient>
</defs>
</svg>
